{"title":"Prometheus.2012.DvDRip.XViD.[Hindi.Tamil.Telugu]-h003","uid":7624472,"size":1492313539,"categoryP":"video","categoryS":"movies","magnet":"?xt=urn:btih:fc2adb5333ce21fd7cb292a85208ae1366bd7b32&amp;dn=Prometheus.2012.DvDRip.XViD.%5BHindi.Tamil.Telugu%5D-h003&amp;tr=udp%3A%2F%2Ftracker.openbittorrent.com%3A80&amp;tr=udp%3A%2F%2Fopen.demonii.com%3A1337&amp;tr=udp%3A%2F%2Ftracker.coppersurfer.tk%3A6969&amp;tr=udp%3A%2F%2Fexodus.desync.com%3A6969","seeders":0,"leechers":1,"uploader":"haloReD","files":-1,"time":1347403976,"description":"General Info:\n\nComplete name      : Prometheus.2012.DvDRip.XViD.[Hindi.Tamil.Telugu]-h003.avi\nFormat             : AVI\nFile size          : 1.39 GiB\nDuration           : 1h 58mn\nOverall bit rate   : 1 676 Kbps\n\n\nVideo:\n\nFormat             : MPEG-4 Visual\nCodec ID           : XVID\nDuration           : 1h 58mn\nBit rate           : 1 286 Kbps\nWidth              : 700 pixels\nHeight             : 288 pixels\nAspect ratio       : 2.40:1\nFrame rate         : 25.000 fps\nBit depth          : 8 bits\nScan type          : Progressive\nCompression mode   : Lossy\nStream size        : 1.07 GiB (77%)\n\n\nAudio: \n\n#1\n\nLanguage           : Hindi\nFormat             : MPEG Audio\nCodec ID           : MP3\nDuration           : 1h 58mn\nNominal bit rate   : 128 Kbps\nChannel(s)         : 2 channels\nSampling rate      : 48.0 KHz\nCompression mode   : Lossy\nStream size        : 102 MiB (7%)\n\n#2\n\nLanguage           : Tamil\nFormat             : MPEG Audio\nCodec ID           : MP3\nDuration           : 1h 58mn\nNominal bit rate   : 128 Kbps\nChannel(s)         : 2 channels\nSampling rate      : 48.0 KHz\nCompression mode   : Lossy\nStream size        : 102 MiB (7%)\n\n#3\n\nLanguage           : Telugu\nFormat             : MPEG Audio\nCodec ID           : MP3\nDuration           : 1h 58mn\nNominal bit rate   : 128 Kbps\nChannel(s)         : 2 channels\nSampling rate      : 48.0 KHz\nCompression mode   : Lossy\nStream size        : 102 MiB (7%)\n\niMDB Info:\n\n &lt;a href=&quot;\nhttp://www.imdb.com/title/tt1446714/&quot; rel=&quot;nofollow&quot; target=&quot;_NEW&quot;&gt;\nhttp://www.imdb.com/title/tt1446714/&lt;/a&gt;\n\n\n\nRatings: 7.5/10 from 134,025 users A team of explorers discover a clue to the origins of mankind on Earth, \nleading them on a journey to the darkest corners of the universe. There, they must fight a terrifying battle \nto save the future of the human race. \n\nDirector : Ridley Scott \nWriters  : Jon Spaihts, Damon Lindelof \nStars    : Noomi Rapace, Logan Marshall-Green and Michael Fassbender\n\n\nScreens:\n &lt;a href=&quot;\nhttp://www.postimg.com/84000/photo-83425.jpg&quot; rel=&quot;nofollow&quot; target=&quot;_NEW&quot;&gt;\nhttp://www.postimg.com/84000/photo-83425.jpg&lt;/a&gt;\n &lt;a href=&quot;\nhttp://www.postimg.com/84000/photo-83426.jpg&quot; rel=&quot;nofollow&quot; target=&quot;_NEW&quot;&gt;\nhttp://www.postimg.com/84000/photo-83426.jpg&lt;/a&gt;\n &lt;a href=&quot;\nhttp://www.postimg.com/84000/photo-83427.jpg&quot; rel=&quot;nofollow&quot; target=&quot;_NEW&quot;&gt;\nhttp://www.postimg.com/84000/photo-83427.jpg&lt;/a&gt;\n &lt;a href=&quot;\nhttp://www.postimg.com/84000/photo-83428.jpg&quot; rel=&quot;nofollow&quot; target=&quot;_NEW&quot;&gt;\nhttp://www.postimg.com/84000/photo-83428.jpg&lt;/a&gt;\n\n\nTrailer:\n\n","torrent":{"xt":"urn:btih:fc2adb5333ce21fd7cb292a85208ae1366bd7b32","amp;dn":"Prometheus.2012.DvDRip.XViD.%5BHindi.Tamil.Telugu%5D-h003","amp;tr":["udp%3A%2F%2Ftracker.openbittorrent.com%3A80","udp%3A%2F%2Fopen.demonii.com%3A1337","udp%3A%2F%2Ftracker.coppersurfer.tk%3A6969","udp%3A%2F%2Fexodus.desync.com%3A6969"],"infoHash":"fc2adb5333ce21fd7cb292a85208ae1366bd7b32","infoHashBuffer":{"type":"Buffer","data":[252,42,219,83,51,206,33,253,124,178,146,168,82,8,174,19,102,189,123,50]},"announce":[],"urlList":[]}}